<svg  height="30" viewBox="0 0 276 83" fill="none" xmlns="http://www.w3.org/2000/svg">
<path d="M13.251 25.901C14.287 25.901 15.19 25.775 15.96 25.523C16.73 25.257 17.367 24.886 17.871 24.41C18.389 23.92 18.774 23.332 19.026 22.646C19.278 21.946 19.404 21.169 19.404 20.315C19.404 19.503 19.278 18.768 19.026 18.11C18.774 17.452 18.396 16.892 17.892 16.43C17.388 15.968 16.751 15.618 15.981 15.38C15.211 15.128 14.301 15.002 13.251 15.002H9.03V25.901H13.251ZM13.251 10.634C15.281 10.634 17.038 10.872 18.522 11.348C20.006 11.824 21.231 12.489 22.197 13.343C23.163 14.197 23.877 15.219 24.339 16.409C24.815 17.599 25.053 18.901 25.053 20.315C25.053 21.785 24.808 23.136 24.318 24.368C23.828 25.586 23.093 26.636 22.113 27.518C21.133 28.4 19.901 29.086 18.417 29.576C16.947 30.066 15.225 30.311 13.251 30.311H9.03V41H3.381V10.634H13.251ZM39.2917 31.802C37.7937 31.872 36.5337 32.005 35.5117 32.201C34.4897 32.383 33.6707 32.621 33.0547 32.915C32.4387 33.209 31.9977 33.552 31.7317 33.944C31.4657 34.336 31.3327 34.763 31.3327 35.225C31.3327 36.135 31.5987 36.786 32.1307 37.178C32.6767 37.57 33.3837 37.766 34.2517 37.766C35.3157 37.766 36.2327 37.577 37.0027 37.199C37.7867 36.807 38.5497 36.219 39.2917 35.435V31.802ZM27.4057 22.457C29.8837 20.189 32.8657 19.055 36.3517 19.055C37.6117 19.055 38.7387 19.265 39.7327 19.685C40.7267 20.091 41.5667 20.665 42.2527 21.407C42.9387 22.135 43.4567 23.01 43.8067 24.032C44.1707 25.054 44.3527 26.174 44.3527 27.392V41H42.0007C41.5107 41 41.1327 40.93 40.8667 40.79C40.6007 40.636 40.3907 40.335 40.2367 39.887L39.7747 38.333C39.2287 38.823 38.6967 39.257 38.1787 39.635C37.6607 39.999 37.1217 40.307 36.5617 40.559C36.0017 40.811 35.3997 41 34.7557 41.126C34.1257 41.266 33.4257 41.336 32.6557 41.336C31.7457 41.336 30.9057 41.217 30.1357 40.979C29.3657 40.727 28.7007 40.356 28.1407 39.866C27.5807 39.376 27.1467 38.767 26.8387 38.039C26.5307 37.311 26.3767 36.464 26.3767 35.498C26.3767 34.952 26.4677 34.413 26.6497 33.881C26.8317 33.335 27.1257 32.817 27.5317 32.327C27.9517 31.837 28.4907 31.375 29.1487 30.941C29.8067 30.507 30.6117 30.129 31.5637 29.807C32.5297 29.485 33.6497 29.226 34.9237 29.03C36.1977 28.82 37.6537 28.694 39.2917 28.652V27.392C39.2917 25.95 38.9837 24.886 38.3677 24.2C37.7517 23.5 36.8627 23.15 35.7007 23.15C34.8607 23.15 34.1607 23.248 33.6007 23.444C33.0547 23.64 32.5717 23.864 32.1517 24.116C31.7317 24.354 31.3467 24.571 30.9967 24.767C30.6607 24.963 30.2827 25.061 29.8627 25.061C29.4987 25.061 29.1907 24.97 28.9387 24.788C28.6867 24.592 28.4837 24.368 28.3297 24.116L27.4057 22.457ZM54.1308 23.192C54.8028 21.904 55.6008 20.896 56.5248 20.168C57.4488 19.426 58.5408 19.055 59.8008 19.055C60.7948 19.055 61.5928 19.272 62.1948 19.706L61.8588 23.591C61.7888 23.843 61.6838 24.025 61.5438 24.137C61.4178 24.235 61.2428 24.284 61.0188 24.284C60.8088 24.284 60.4938 24.249 60.0738 24.179C59.6678 24.109 59.2688 24.074 58.8768 24.074C58.3028 24.074 57.7918 24.158 57.3438 24.326C56.8958 24.494 56.4898 24.739 56.1258 25.061C55.7758 25.369 55.4608 25.747 55.1808 26.195C54.9148 26.643 54.6628 27.154 54.4248 27.728V41H49.2378V19.454H52.2828C52.8148 19.454 53.1858 19.552 53.3958 19.748C53.6058 19.93 53.7458 20.266 53.8158 20.756L54.1308 23.192ZM70.0928 9.794V27.665H71.0588C71.4088 27.665 71.6818 27.623 71.8778 27.539C72.0878 27.441 72.2978 27.252 72.5078 26.972L77.8628 20.357C78.0868 20.063 78.3318 19.839 78.5978 19.685C78.8778 19.531 79.2348 19.454 79.6688 19.454H84.4147L77.7158 27.455C77.2398 28.085 76.7218 28.568 76.1618 28.904C76.4558 29.114 76.7148 29.359 76.9388 29.639C77.1768 29.919 77.4008 30.22 77.6108 30.542L84.7928 41H80.1098C79.7038 41 79.3538 40.937 79.0598 40.811C78.7658 40.671 78.5208 40.426 78.3248 40.076L72.8228 31.907C72.6268 31.585 72.4238 31.375 72.2138 31.277C72.0038 31.179 71.6888 31.13 71.2688 31.13H70.0928V41H64.9058V9.794H70.0928ZM143.831 25.775V38.06C142.291 39.194 140.646 40.027 138.896 40.559C137.16 41.077 135.298 41.336 133.31 41.336C130.832 41.336 128.585 40.951 126.569 40.181C124.567 39.411 122.852 38.34 121.424 36.968C120.01 35.596 118.918 33.958 118.148 32.054C117.378 30.15 116.993 28.071 116.993 25.817C116.993 23.535 117.364 21.442 118.106 19.538C118.848 17.634 119.898 15.996 121.256 14.624C122.628 13.252 124.287 12.188 126.233 11.432C128.179 10.676 130.363 10.298 132.785 10.298C134.017 10.298 135.165 10.396 136.229 10.592C137.307 10.788 138.301 11.061 139.211 11.411C140.135 11.747 140.975 12.16 141.731 12.65C142.487 13.14 143.18 13.679 143.81 14.267L142.193 16.829C141.941 17.235 141.612 17.487 141.206 17.585C140.8 17.669 140.359 17.564 139.883 17.27C139.421 17.004 138.959 16.738 138.497 16.472C138.035 16.206 137.517 15.975 136.943 15.779C136.383 15.583 135.746 15.422 135.032 15.296C134.332 15.17 133.52 15.107 132.596 15.107C131.098 15.107 129.74 15.359 128.522 15.863C127.318 16.367 126.289 17.088 125.435 18.026C124.581 18.964 123.923 20.091 123.461 21.407C122.999 22.723 122.768 24.193 122.768 25.817C122.768 27.553 123.013 29.107 123.503 30.479C124.007 31.837 124.707 32.992 125.603 33.944C126.513 34.882 127.605 35.603 128.879 36.107C130.153 36.597 131.574 36.842 133.142 36.842C134.262 36.842 135.263 36.723 136.145 36.485C137.027 36.247 137.888 35.925 138.728 35.519V30.017H134.906C134.542 30.017 134.255 29.919 134.045 29.723C133.849 29.513 133.751 29.261 133.751 28.967V25.775H143.831ZM178.233 25.817C178.233 28.043 177.862 30.108 177.12 32.012C176.392 33.902 175.356 35.54 174.012 36.926C172.668 38.312 171.051 39.397 169.161 40.181C167.271 40.951 165.171 41.336 162.861 41.336C160.565 41.336 158.472 40.951 156.582 40.181C154.692 39.397 153.068 38.312 151.71 36.926C150.366 35.54 149.323 33.902 148.581 32.012C147.839 30.108 147.468 28.043 147.468 25.817C147.468 23.591 147.839 21.533 148.581 19.643C149.323 17.739 150.366 16.094 151.71 14.708C153.068 13.322 154.692 12.244 156.582 11.474C158.472 10.69 160.565 10.298 162.861 10.298C164.401 10.298 165.85 10.48 167.208 10.844C168.566 11.194 169.812 11.698 170.946 12.356C172.08 13 173.095 13.791 173.991 14.729C174.901 15.653 175.671 16.689 176.301 17.837C176.931 18.985 177.407 20.231 177.729 21.575C178.065 22.919 178.233 24.333 178.233 25.817ZM172.458 25.817C172.458 24.151 172.234 22.66 171.786 21.344C171.338 20.014 170.701 18.887 169.875 17.963C169.049 17.039 168.041 16.332 166.851 15.842C165.675 15.352 164.345 15.107 162.861 15.107C161.377 15.107 160.04 15.352 158.85 15.842C157.674 16.332 156.666 17.039 155.826 17.963C155 18.887 154.363 20.014 153.915 21.344C153.467 22.66 153.243 24.151 153.243 25.817C153.243 27.483 153.467 28.981 153.915 30.311C154.363 31.627 155 32.747 155.826 33.671C156.666 34.581 157.674 35.281 158.85 35.771C160.04 36.261 161.377 36.506 162.861 36.506C164.345 36.506 165.675 36.261 166.851 35.771C168.041 35.281 169.049 34.581 169.875 33.671C170.701 32.747 171.338 31.627 171.786 30.311C172.234 28.981 172.458 27.483 172.458 25.817Z" fill="#ECE8E8" fill-opacity="0.8"/>
<path d="M109.369 38.059V57H107.081C106.743 57 106.457 56.948 106.223 56.844C105.998 56.7313 105.772 56.5407 105.547 56.272L96.616 44.975C96.6507 45.313 96.6723 45.6423 96.681 45.963C96.6983 46.275 96.707 46.5697 96.707 46.847V57H92.833V38.059H95.147C95.3377 38.059 95.498 38.0677 95.628 38.085C95.758 38.1023 95.875 38.137 95.979 38.189C96.083 38.2323 96.1827 38.2973 96.278 38.384C96.3733 38.4707 96.4817 38.5877 96.603 38.735L105.612 50.11C105.569 49.746 105.538 49.395 105.521 49.057C105.504 48.7103 105.495 48.3853 105.495 48.082V38.059H109.369Z" fill="#ECE8E8" fill-opacity="0.8"/>
</svg>
